<svg width="1680" height="1200" viewBox="0 0 1680 1200" fill="none" xmlns="http://www.w3.org/2000/svg">
<g clip-path="url(#clip0_446_7914)">
<g clip-path="url(#clip1_446_7914)">
<g clip-path="url(#clip2_446_7914)">
<path d="M262.656 125.743C262.656 123.339 263.611 121.034 265.311 119.334L271.331 113.314C273.03 111.615 275.335 110.66 277.738 110.66H262.656V125.743Z" fill="#070707"/>
</g>
</g>
</g>
<g clip-path="url(#clip3_446_7914)">
<g clip-path="url(#clip4_446_7914)">
<g clip-path="url(#clip5_446_7914)">
<path d="M262.656 1074.61C262.656 1077.01 263.611 1079.32 265.311 1081.02L271.331 1087.04C272.172 1087.88 273.171 1088.55 274.27 1089C275.37 1089.46 276.548 1089.69 277.738 1089.69H262.656V1074.61Z" fill="#070707"/>
</g>
</g>
</g>
<g clip-path="url(#clip6_446_7914)">
<g clip-path="url(#clip7_446_7914)">
<g clip-path="url(#clip8_446_7914)">
<path d="M1657.69 125.743C1657.69 123.34 1656.74 121.034 1655.04 119.334L1649.02 113.314C1648.18 112.473 1647.18 111.805 1646.08 111.35C1644.98 110.895 1643.8 110.66 1642.61 110.66H1657.69V125.743Z" fill="#070707"/>
</g>
</g>
</g>
<g clip-path="url(#clip9_446_7914)">
<g clip-path="url(#clip10_446_7914)">
<g clip-path="url(#clip11_446_7914)">
<path d="M1657.69 1074.61C1657.69 1077.01 1656.74 1079.32 1655.04 1081.02L1649.02 1087.04C1648.18 1087.88 1647.18 1088.55 1646.08 1089C1644.98 1089.46 1643.8 1089.69 1642.61 1089.69H1657.69V1074.61Z" fill="#070707"/>
</g>
</g>
</g>
<g clip-path="url(#clip12_446_7914)">
<g clip-path="url(#clip13_446_7914)">
<g clip-path="url(#clip14_446_7914)">
<path d="M1657.35 781.132C1657.35 780.18 1657.16 779.237 1656.8 778.357C1656.43 777.477 1655.9 776.677 1655.22 776.004L1641.34 762.122C1640.67 761.448 1640.14 760.649 1639.77 759.769C1639.41 758.889 1639.22 757.946 1639.22 756.994V443.007C1639.22 441.084 1639.98 439.239 1641.34 437.879L1655.22 423.997C1656.58 422.637 1657.35 420.792 1657.35 418.869V781.132Z" fill="#070707"/>
</g>
</g>
</g>
<g clip-path="url(#clip15_446_7914)">
<g clip-path="url(#clip16_446_7914)">
<g clip-path="url(#clip17_446_7914)">
<path d="M262.656 781.132C262.656 780.18 262.844 779.237 263.208 778.357C263.573 777.477 264.107 776.677 264.78 776.004L278.662 762.122C279.336 761.448 279.87 760.649 280.234 759.769C280.599 758.889 280.786 757.946 280.786 756.994V443.007C280.786 441.084 280.022 439.239 278.662 437.879L264.78 423.997C263.42 422.637 262.656 420.792 262.656 418.869V781.132Z" fill="#070707"/>
</g>
</g>
</g>
<g clip-path="url(#clip18_446_7914)">
<g clip-path="url(#clip19_446_7914)">
<g clip-path="url(#clip20_446_7914)">
<path d="M1140.95 110.66C1139.03 110.66 1137.18 111.424 1135.82 112.784L1121.94 126.666C1120.58 128.026 1118.74 128.79 1116.81 128.79H802.825C800.902 128.79 799.058 128.026 797.698 126.666L783.816 112.784C782.455 111.424 780.611 110.66 778.688 110.66H1140.95Z" fill="#070707"/>
</g>
</g>
</g>
<g clip-path="url(#clip21_446_7914)">
<g clip-path="url(#clip22_446_7914)">
<g clip-path="url(#clip23_446_7914)">
<path d="M1140.95 1089.35C1139.03 1089.35 1137.18 1088.59 1135.82 1087.23L1121.94 1073.34C1120.58 1071.98 1118.74 1071.22 1116.81 1071.22H802.825C800.902 1071.22 799.058 1071.98 797.698 1073.34L783.816 1087.23C782.455 1088.59 780.611 1089.35 778.688 1089.35H1140.95Z" fill="#070707"/>
</g>
</g>
</g>
<rect x="240" y="88" width="1440" height="19.3365" fill="#070707"/>
<rect x="240" y="1092.66" width="1440" height="19.3365" fill="#070707"/>
<rect x="240" y="88" width="16.995" height="1024" fill="#070707"/>
<rect x="1663.01" y="88" width="16.995" height="1024" fill="#070707"/>
<g clip-path="url(#clip24_446_7914)">
<g clip-path="url(#clip25_446_7914)">
<g clip-path="url(#clip26_446_7914)">
<path fill-rule="evenodd" clip-rule="evenodd" d="M251.328 110.094C251.328 110.244 251.388 110.388 251.494 110.494C251.6 110.6 251.744 110.66 251.895 110.66C252.045 110.66 252.189 110.6 252.295 110.494C252.401 110.388 252.461 110.244 252.461 110.094V105.562C252.461 104.209 252.998 102.913 253.954 101.956C254.911 101 256.207 100.463 257.56 100.463H262.092C262.242 100.463 262.386 100.403 262.492 100.297C262.598 100.191 262.658 100.047 262.658 99.8966C262.658 99.7463 262.598 99.6022 262.492 99.496C262.386 99.3898 262.242 99.3301 262.092 99.3301H252.461C252.161 99.3301 251.872 99.4494 251.66 99.6619C251.447 99.8744 251.328 100.163 251.328 100.463V110.094Z" fill="#FEF6F1"/>
</g>
</g>
</g>
<g clip-path="url(#clip27_446_7914)">
<g clip-path="url(#clip28_446_7914)">
<g clip-path="url(#clip29_446_7914)">
<path fill-rule="evenodd" clip-rule="evenodd" d="M1668.67 110.094C1668.67 110.244 1668.61 110.388 1668.51 110.494C1668.4 110.6 1668.26 110.66 1668.11 110.66C1667.96 110.66 1667.81 110.6 1667.71 110.494C1667.6 110.388 1667.54 110.244 1667.54 110.094V105.562C1667.54 104.209 1667 102.913 1666.05 101.956C1665.09 101 1663.79 100.463 1662.44 100.463H1657.91C1657.76 100.463 1657.62 100.403 1657.51 100.297C1657.4 100.191 1657.34 100.047 1657.34 99.8966C1657.34 99.7463 1657.4 99.6022 1657.51 99.496C1657.62 99.3898 1657.76 99.3301 1657.91 99.3301H1667.54C1667.84 99.3301 1668.13 99.4494 1668.34 99.6619C1668.55 99.8744 1668.67 100.163 1668.67 100.463V110.094Z" fill="#FEF6F1"/>
</g>
</g>
</g>
<g clip-path="url(#clip30_446_7914)">
<g clip-path="url(#clip31_446_7914)">
<g clip-path="url(#clip32_446_7914)">
<path fill-rule="evenodd" clip-rule="evenodd" d="M251.328 1089.91C251.328 1089.76 251.388 1089.61 251.494 1089.51C251.6 1089.4 251.744 1089.34 251.895 1089.34C252.045 1089.34 252.189 1089.4 252.295 1089.51C252.401 1089.61 252.461 1089.76 252.461 1089.91V1094.44C252.461 1095.79 252.998 1097.09 253.954 1098.04C254.911 1099 256.207 1099.54 257.56 1099.54H262.092C262.242 1099.54 262.386 1099.6 262.492 1099.7C262.598 1099.81 262.658 1099.95 262.658 1100.1C262.658 1100.25 262.598 1100.4 262.492 1100.5C262.386 1100.61 262.242 1100.67 262.092 1100.67H252.461C252.161 1100.67 251.872 1100.55 251.66 1100.34C251.447 1100.13 251.328 1099.84 251.328 1099.54V1089.91Z" fill="#FEF6F1"/>
</g>
</g>
</g>
<g clip-path="url(#clip33_446_7914)">
<g clip-path="url(#clip34_446_7914)">
<g clip-path="url(#clip35_446_7914)">
<path fill-rule="evenodd" clip-rule="evenodd" d="M1668.67 1089.91C1668.67 1089.76 1668.61 1089.61 1668.51 1089.51C1668.4 1089.4 1668.26 1089.34 1668.11 1089.34C1667.96 1089.34 1667.81 1089.4 1667.71 1089.51C1667.6 1089.61 1667.54 1089.76 1667.54 1089.91V1094.44C1667.54 1095.79 1667 1097.09 1666.05 1098.04C1665.09 1099 1663.79 1099.54 1662.44 1099.54H1657.91C1657.76 1099.54 1657.62 1099.6 1657.51 1099.7C1657.4 1099.81 1657.34 1099.95 1657.34 1100.1C1657.34 1100.25 1657.4 1100.4 1657.51 1100.5C1657.62 1100.61 1657.76 1100.67 1657.91 1100.67H1667.54C1667.84 1100.67 1668.13 1100.55 1668.34 1100.34C1668.55 1100.13 1668.67 1099.84 1668.67 1099.54V1089.91Z" fill="#FEF6F1"/>
</g>
</g>
</g>
<defs>
<clipPath id="clip0_446_7914">
<rect width="15.86" height="15.86" fill="white" transform="translate(262.656 110.66)"/>
</clipPath>
<clipPath id="clip1_446_7914">
<rect width="15.86" height="15.86" fill="white" transform="translate(262.656 110.66)"/>
</clipPath>
<clipPath id="clip2_446_7914">
<rect width="15.86" height="15.86" fill="white" transform="translate(262.656 110.66)"/>
</clipPath>
<clipPath id="clip3_446_7914">
<rect width="15.86" height="15.86" fill="white" transform="translate(262.656 1074.61)"/>
</clipPath>
<clipPath id="clip4_446_7914">
<rect width="15.86" height="15.86" fill="white" transform="translate(262.656 1074.61)"/>
</clipPath>
<clipPath id="clip5_446_7914">
<rect width="15.86" height="15.86" fill="white" transform="translate(262.656 1074.61)"/>
</clipPath>
<clipPath id="clip6_446_7914">
<rect width="15.86" height="15.86" fill="white" transform="translate(1642.61 110.66)"/>
</clipPath>
<clipPath id="clip7_446_7914">
<rect width="15.86" height="15.86" fill="white" transform="translate(1642.61 110.66)"/>
</clipPath>
<clipPath id="clip8_446_7914">
<rect width="15.86" height="15.86" fill="white" transform="translate(1642.61 110.66)"/>
</clipPath>
<clipPath id="clip9_446_7914">
<rect width="15.86" height="15.86" fill="white" transform="translate(1642.61 1074.61)"/>
</clipPath>
<clipPath id="clip10_446_7914">
<rect width="15.86" height="15.86" fill="white" transform="translate(1642.61 1074.61)"/>
</clipPath>
<clipPath id="clip11_446_7914">
<rect width="15.86" height="15.86" fill="white" transform="translate(1642.61 1074.61)"/>
</clipPath>
<clipPath id="clip12_446_7914">
<rect width="18.13" height="444" fill="white" transform="translate(1639.22 378)"/>
</clipPath>
<clipPath id="clip13_446_7914">
<rect width="18.13" height="444" fill="white" transform="translate(1639.22 378)"/>
</clipPath>
<clipPath id="clip14_446_7914">
<rect width="18.13" height="363.507" fill="white" transform="translate(1639.22 418.247)"/>
</clipPath>
<clipPath id="clip15_446_7914">
<rect width="18.13" height="444" fill="white" transform="translate(262.656 378)"/>
</clipPath>
<clipPath id="clip16_446_7914">
<rect width="18.13" height="444" fill="white" transform="translate(262.656 378)"/>
</clipPath>
<clipPath id="clip17_446_7914">
<rect width="18.13" height="363.507" fill="white" transform="translate(262.656 418.247)"/>
</clipPath>
<clipPath id="clip18_446_7914">
<rect width="399.98" height="18.13" fill="white" transform="translate(760 110.66)"/>
</clipPath>
<clipPath id="clip19_446_7914">
<rect width="399.98" height="18.13" fill="white" transform="translate(760 110.66)"/>
</clipPath>
<clipPath id="clip20_446_7914">
<rect width="362.6" height="18.13" fill="white" transform="translate(778.688 110.66)"/>
</clipPath>
<clipPath id="clip21_446_7914">
<rect width="399.98" height="18.13" fill="white" transform="translate(760 1071.22)"/>
</clipPath>
<clipPath id="clip22_446_7914">
<rect width="399.98" height="18.13" fill="white" transform="translate(760 1071.22)"/>
</clipPath>
<clipPath id="clip23_446_7914">
<rect width="362.6" height="18.13" fill="white" transform="translate(778.688 1071.22)"/>
</clipPath>
<clipPath id="clip24_446_7914">
<rect width="11.33" height="11.33" fill="white" transform="translate(251.328 99.3301)"/>
</clipPath>
<clipPath id="clip25_446_7914">
<rect width="11.33" height="11.33" fill="white" transform="translate(251.328 99.3301)"/>
</clipPath>
<clipPath id="clip26_446_7914">
<rect width="11.33" height="11.33" fill="white" transform="translate(251.328 99.3301)"/>
</clipPath>
<clipPath id="clip27_446_7914">
<rect width="11.33" height="11.33" fill="white" transform="translate(1657.34 99.3301)"/>
</clipPath>
<clipPath id="clip28_446_7914">
<rect width="11.33" height="11.33" fill="white" transform="translate(1657.34 99.3301)"/>
</clipPath>
<clipPath id="clip29_446_7914">
<rect width="11.33" height="11.33" fill="white" transform="translate(1657.34 99.3301)"/>
</clipPath>
<clipPath id="clip30_446_7914">
<rect width="11.33" height="11.33" fill="white" transform="translate(251.328 1089.34)"/>
</clipPath>
<clipPath id="clip31_446_7914">
<rect width="11.33" height="11.33" fill="white" transform="translate(251.328 1089.34)"/>
</clipPath>
<clipPath id="clip32_446_7914">
<rect width="11.33" height="11.33" fill="white" transform="translate(251.328 1089.34)"/>
</clipPath>
<clipPath id="clip33_446_7914">
<rect width="11.33" height="11.33" fill="white" transform="translate(1657.34 1089.34)"/>
</clipPath>
<clipPath id="clip34_446_7914">
<rect width="11.33" height="11.33" fill="white" transform="translate(1657.34 1089.34)"/>
</clipPath>
<clipPath id="clip35_446_7914">
<rect width="11.33" height="11.33" fill="white" transform="translate(1657.34 1089.34)"/>
</clipPath>
</defs>
</svg>
